<svg width="24" height="24" viewBox="0 0 24 24" fill="none" xmlns="http://www.w3.org/2000/svg">
<path d="M12 15.75C11.0054 15.75 10.0516 15.3549 9.34835 14.6517C8.64509 13.9484 8.25 12.9946 8.25 12C8.25 11.0054 8.64509 10.0516 9.34835 9.34835C10.0516 8.64509 11.0054 8.25 12 8.25C12.9946 8.25 13.9484 8.64509 14.6517 9.34835C15.3549 10.0516 15.75 11.0054 15.75 12C15.75 12.9946 15.3549 13.9484 14.6517 14.6517C13.9484 15.3549 12.9946 15.75 12 15.75ZM12 9.75C10.755 9.75 9.75 10.755 9.75 12C9.75 13.245 10.755 14.25 12 14.25C13.245 14.25 14.25 13.245 14.25 12C14.25 10.755 13.245 9.75 12 9.75Z" fill="#FBFBFB"/>
<path d="M13.2743 22.5005H10.7243C10.2443 22.5005 9.8243 22.1705 9.7193 21.7055L9.1043 19.0205L6.7643 20.4905C6.3593 20.7455 5.8343 20.6855 5.4893 20.3405L3.6893 18.5405C3.52203 18.3774 3.41586 18.1617 3.38856 17.9296C3.36125 17.6975 3.41447 17.4631 3.5393 17.2655L5.0093 14.9255L2.3243 14.3105C2.09766 14.2576 1.89566 14.1294 1.75127 13.9469C1.60688 13.7644 1.52863 13.5383 1.5293 13.3055V10.7555C1.5293 10.2755 1.8593 9.85555 2.3243 9.75055L5.0093 9.13555L3.5393 6.79555C3.41447 6.598 3.36125 6.36357 3.38856 6.13149C3.41586 5.8994 3.52203 5.68373 3.6893 5.52055L5.4893 3.72055C5.8343 3.37555 6.3593 3.31555 6.7643 3.57055L9.1043 5.04055L9.7193 2.35555C9.8243 1.89055 10.2443 1.56055 10.7243 1.56055H13.2743C13.7543 1.56055 14.1743 1.89055 14.2793 2.35555L14.8943 5.04055L17.2343 3.57055C17.6393 3.31555 18.1643 3.37555 18.5093 3.72055L20.3093 5.52055C20.6543 5.86555 20.7143 6.39055 20.4593 6.79555L18.9893 9.13555L21.6743 9.75055C22.1393 9.85555 22.4693 10.2755 22.4693 10.7555V13.3055C22.4693 13.7855 22.1393 14.2055 21.6743 14.3105L18.9893 14.9255L20.4593 17.2655C20.7143 17.6705 20.6543 18.1955 20.3093 18.5405L18.5093 20.3405C18.1643 20.6855 17.6393 20.7455 17.2343 20.4905L14.8943 19.0205L14.2793 21.7055C14.1743 22.1705 13.7543 22.5005 13.2743 22.5005ZM11.0993 21.0005H12.8993L13.9043 16.6205L17.7143 19.0055L18.9893 17.7305L16.6043 13.9205L20.9843 12.9155V11.1155L16.6043 10.1105L18.9893 6.30055L17.7143 5.02555L13.9043 7.41055L12.8993 3.03055H11.0993L10.0943 7.41055L6.2843 5.02555L5.0093 6.30055L7.3943 10.1105L3.0143 11.1155V12.9155L7.3943 13.9205L5.0093 17.7305L6.2843 19.0055L10.0943 16.6205L11.0993 21.0005Z" fill="#FBFBFB"/>
</svg>
