<svg width="20" height="21" viewBox="0 0 20 21" fill="none" xmlns="http://www.w3.org/2000/svg">
<path d="M10 11.333C11.9967 11.333 13.8125 11.9113 15.1483 12.7255C15.815 13.1338 16.385 13.613 16.7967 14.1338C17.2017 14.6472 17.5 15.2605 17.5 15.9163C17.5 16.6205 17.1575 17.1755 16.6642 17.5713C16.1975 17.9463 15.5817 18.1947 14.9275 18.368C13.6125 18.7155 11.8575 18.833 10 18.833C8.1425 18.833 6.3875 18.7163 5.0725 18.368C4.41833 18.1947 3.8025 17.9463 3.33583 17.5713C2.84167 17.1747 2.5 16.6205 2.5 15.9163C2.5 15.2605 2.79833 14.6472 3.20333 14.1338C3.615 13.613 4.18417 13.1338 4.85167 12.7255C6.1875 11.9113 8.00417 11.333 10 11.333Z" fill="black" fill-opacity="0.69"/>
<path opacity="0.3" d="M9.99914 2.16699C13.2066 2.16699 15.2116 5.63949 13.6075 8.41699C13.2418 9.05039 12.7158 9.57637 12.0824 9.94207C11.449 10.3078 10.7305 10.5003 9.99914 10.5003C6.79164 10.5003 4.78664 7.02783 6.3908 4.25033C6.7565 3.61693 7.28247 3.09095 7.91586 2.72525C8.54926 2.35955 9.26775 2.16701 9.99914 2.16699Z" fill="black"/>
</svg>
